<svg id="Layer_1" data-name="Layer 1" xmlns="http://www.w3.org/2000/svg" viewBox="0 0 360 360"><defs><style>.cls-1{fill:#06ed94;}.cls-2{fill:#059b61;}.cls-3{fill:#1957ba;}.cls-4{fill:#6ca8ff;}</style></defs><title>OAuth2_Proxy_logo_v3</title><path class="cls-1" d="M179.00205,349.728c-93.69483,0-169.921-76.22687-169.921-169.9217S85.30722,9.88462,179.00205,9.88462c93.69408,0,169.92021,76.22687,169.92021,169.9217S272.69613,349.728,179.00205,349.728Zm0-327.81581c-87.06238,0-157.89338,70.831-157.89338,157.89411s70.831,157.89411,157.89338,157.89411,157.89411-70.831,157.89411-157.89411S266.06442,21.91221,179.00205,21.91221Z"/><polygon class="cls-2" points="208.628 90.373 203.724 108.705 243.153 141.064 280.21 136.494 208.628 90.373"/><polygon class="cls-1" points="304.604 167.593 304.604 133.558 250.778 87.759 208.628 90.373 260.02 131.65 53.401 131.65 53.401 169.893 304.604 167.593"/><polygon class="cls-3" points="149.376 261.504 154.28 243.172 113.684 209.179 77.795 215.382 149.376 261.504"/><polygon class="cls-4" points="53.401 184.283 53.401 218.319 107.226 264.118 149.376 261.504 97.984 220.226 304.604 220.226 304.604 181.984 53.401 184.283"/></svg>