<svg id="Layer_1" data-name="Layer 1" xmlns="http://www.w3.org/2000/svg" viewBox="0 0 271.25527 412.45904"><defs><style>.cls-1{fill:#06ed94;}.cls-2{fill:#333;}.cls-3{fill:#7c7c82;}.cls-4{fill:#059b61;}.cls-5{fill:#1957ba;}.cls-6{fill:#6ca8ff;}</style></defs><title>OAuth2_Proxy_logo_v3</title><path class="cls-1" d="M135.48689,257.62084A124.15145,124.15145,0,1,1,259.6386,133.46912,124.29216,124.29216,0,0,1,135.48689,257.62084Zm0-239.515a115.36361,115.36361,0,1,0,115.365,115.36333A115.4943,115.4943,0,0,0,135.48689,18.10579Z"/><path class="cls-2" d="M43.349,326.11062a25.03594,25.03594,0,0,1-9.86153-1.9257,24.03513,24.03513,0,0,1-13.08258-13.18176,25.95077,25.95077,0,0,1,0-19.45748,24.03513,24.03513,0,0,1,13.08258-13.18176,25.03611,25.03611,0,0,1,9.86153-1.92569,25.04373,25.04373,0,0,1,9.86152,1.92569,24.03191,24.03191,0,0,1,13.082,13.18176,25.95077,25.95077,0,0,1,0,19.45748,24.03191,24.03191,0,0,1-13.082,13.18176A25.04355,25.04355,0,0,1,43.349,326.11062Zm0-8.5a16.08167,16.08167,0,0,0,6.20905-1.19509,15.64,15.64,0,0,0,5.047-3.32023,15.1262,15.1262,0,0,0,3.3869-5.14675,18.7484,18.7484,0,0,0,0-13.34816,15.13964,15.13964,0,0,0-3.3869-5.1462,15.65025,15.65025,0,0,0-5.047-3.32078,16.727,16.727,0,0,0-12.4181,0,15.62678,15.62678,0,0,0-5.047,3.32078,15.1001,15.1001,0,0,0-3.3869,5.1462,18.74056,18.74056,0,0,0,0,13.34816,15.08674,15.08674,0,0,0,3.3869,5.14675,15.61654,15.61654,0,0,0,5.047,3.32023A16.07574,16.07574,0,0,0,43.349,317.61057Z"/><path class="cls-2" d="M87.97487,277.50053H98.20116l17.864,47.54779h-9.89513l-3.91805-11.3558H83.92349L80.006,325.04832H70.11085Zm11.35526,27.95752-4.24976-11.887L93.35359,287.794h-.53115l-1.72678,5.77708-4.24975,11.887Z"/><path class="cls-2" d="M141.432,320.798h-.53115a11.02494,11.02494,0,0,1-4.117,3.885,12.04189,12.04189,0,0,1-5.91041,1.42761q-6.17625,0-9.19759-3.78527-3.02268-3.78444-3.0216-10.0935v-19.723h8.6995V311.169q0,3.521,1.56039,5.21287a5.88,5.88,0,0,0,4.54893,1.69372,6.335,6.335,0,0,0,3.15439-.76366,7.36817,7.36817,0,0,0,2.3246-2.05849,9.31986,9.31986,0,0,0,1.46067-3.0552,13.70705,13.70705,0,0,0,.49809-3.75166V292.5088h8.6995v32.53952H141.432Z"/><path class="cls-2" d="M160.95505,299.94654h-5.711V292.5088h5.711v-9.96125h8.6995v9.96125h7.96889v7.43774h-7.96889v13.00237a9.40943,9.40943,0,0,0,.232,2.156,3.50429,3.50429,0,0,0,.89645,1.67692,3.29006,3.29006,0,0,0,2.6563,1.09428,4.8322,4.8322,0,0,0,3.0552-.86339l2.45685,7.63719a14.4013,14.4013,0,0,1-3.28718,1.09591,19.24352,19.24352,0,0,1-3.885.36476,11.87693,11.87693,0,0,1-4.41614-.77884,9.38856,9.38856,0,0,1-3.28718-2.13545q-3.12186-3.05113-3.12078-8.67673Z"/><path class="cls-2" d="M184.32841,277.50053h8.6995v13.34815l-.53115,5.90987h.53115a10.7816,10.7816,0,0,1,4.01778-3.81832,11.65893,11.65893,0,0,1,5.87681-1.49427q6.30877,0,9.33037,3.71914,3.02106,3.71941,3.0216,10.16016v19.72306H206.575V306.38757a7.42672,7.42672,0,0,0-1.59345-5.14621,5.69992,5.69992,0,0,0-4.44975-1.75984,6.53689,6.53689,0,0,0-3.18745.76366,7.09646,7.09646,0,0,0-2.35711,2.09154A9.73186,9.73186,0,0,0,193.526,305.425a13.71381,13.71381,0,0,0-.49809,3.7522v15.87113h-8.6995Z"/><path class="cls-2" d="M221.78162,325.04832v-7.90223q3.91778-3.85111,7.23829-7.17217l2.85575-2.85575q1.46012-1.45931,2.72242-2.72242,1.26094-1.26095,2.25793-2.291.99672-1.02924,1.52733-1.627,1.06176-1.26095,1.89264-2.25794a10.94254,10.94254,0,0,0,1.32842-1.9593,9.958,9.958,0,0,0,.76366-1.92569,7.87231,7.87231,0,0,0,.26558-2.09154,5.08948,5.08948,0,0,0-1.72679-3.81887,6.60122,6.60122,0,0,0-4.71478-1.62652,6.212,6.212,0,0,0-4.64865,1.69318,8.82073,8.82073,0,0,0-2.25794,3.81833l-7.90223-3.25412A14.83518,14.83518,0,0,1,223.11,285.3697a13.75313,13.75313,0,0,1,3.05466-3.38636,15.96788,15.96788,0,0,1,4.41614-2.45739,16.21169,16.21169,0,0,1,5.744-.96258,17.927,17.927,0,0,1,6.24211,1.02924,13.884,13.884,0,0,1,4.71532,2.82215,12.6457,12.6457,0,0,1,2.98854,4.21669,12.85272,12.85272,0,0,1,1.0623,5.21341,15.09115,15.09115,0,0,1-2.09208,7.80251,34.27852,34.27852,0,0,1-5.08008,6.60741l-5.711,5.7115q-2.25848,2.25766-5.11369,5.04648l.26612.3989h18.39517v7.63666Z"/><path class="cls-3" d="M66.12613,369.53928v19.258H60.01681V341.24951H76.22017A14.64408,14.64408,0,0,1,86.71258,345.367a13.739,13.739,0,0,1,0,20.12141,14.62588,14.62588,0,0,1-10.49241,4.05085Zm0-22.446v16.60227H76.353a8.07584,8.07584,0,0,0,6.0432-2.45739,8.33447,8.33447,0,0,0-6.0432-14.14488Z"/><path class="cls-3" d="M102.51758,388.7973H96.40771V356.25779H102.252v5.31259h.26558a8.81855,8.81855,0,0,1,3.81832-4.41614,10.59845,10.59845,0,0,1,5.6779-1.82651,11.44924,11.44924,0,0,1,4.51533.79727l-1.859,5.90987a10.15183,10.15183,0,0,0-3.58636-.46449,7.90481,7.90481,0,0,0-6.00959,2.78909,9.32607,9.32607,0,0,0-2.55657,6.50768Z"/><path class="cls-3" d="M116.66137,372.52727a17.213,17.213,0,0,1,4.71478-12.4181,16.07132,16.07132,0,0,1,12.01974-4.91423,15.85788,15.85788,0,0,1,11.95307,4.91423,18.51723,18.51723,0,0,1,0,24.83674,15.85544,15.85544,0,0,1-11.95307,4.91369,16.06883,16.06883,0,0,1-12.01974-4.91369A17.2098,17.2098,0,0,1,116.66137,372.52727Zm6.10933,0a11.91437,11.91437,0,0,0,3.05466,8.50059,10.43448,10.43448,0,0,0,15.14106,0,13.26169,13.26169,0,0,0,0-16.934,10.28983,10.28983,0,0,0-15.14106,0A11.823,11.823,0,0,0,122.7707,372.52727Z"/><path class="cls-3" d="M170.51794,372.2617l11.62137,16.5356h-7.17217l-8.03556-12.01973-7.90223,12.01973h-7.17216l11.48858-16.5356-11.223-16.00391h6.90659l8.035,11.48858,7.6372-11.48858h7.17162Z"/><path class="cls-3" d="M215.47447,356.25779l-20.387,46.8833H188.7787l7.57053-16.40227-13.41428-30.481h6.641l9.69513,23.37553h.13279l9.4301-23.37553Z"/><polygon class="cls-4" points="157.133 68.125 153.55 81.519 182.358 105.162 209.433 101.824 157.133 68.125"/><polygon class="cls-1" points="227.257 124.546 227.257 99.678 187.929 66.216 157.133 68.125 194.682 98.284 43.718 98.284 43.718 126.226 227.257 124.546"/><polygon class="cls-5" points="113.841 193.161 117.424 179.767 87.763 154.93 61.541 159.463 113.841 193.161"/><polygon class="cls-6" points="43.718 136.74 43.718 161.608 83.045 195.071 113.841 193.161 76.292 163.002 227.257 163.002 227.257 135.06 43.718 136.74"/></svg>